<svg xmlns="http://www.w3.org/2000/svg" width="146" height="110" fill="none"><rect width="122" height="93" fill="#419564" rx="10"/><rect width="122" height="35" x="24" y="75" fill="#fff" rx="5"/><g clip-path="url(#a)"><path fill="#52BB7C" d="M68.965 105.098c-.881 0-1.762 0-2.657-.029-.151-.103-.291-.172-.425-.252-.569-.344-1.224-.6-1.688-1.052a554.28 554.28 0 0 1-7.388-7.368 5.187 5.187 0 0 1-1.506-3.331c-.132-1.782.495-3.284 1.766-4.543 2.297-2.276 4.579-4.569 6.863-6.86.608-.609 1.29-1.096 2.113-1.371.076-.025.126-.128.188-.194.88 0 1.761 0 2.656.029.151.103.292.171.425.252.569.343 1.224.6 1.688 1.051a556.681 556.681 0 0 1 7.39 7.37 5.186 5.186 0 0 1 1.505 3.33c.132 1.782-.495 3.284-1.765 4.543-2.298 2.276-4.58 4.569-6.864 6.859-.608.61-1.288 1.099-2.114 1.369-.086.028-.162.087-.243.131l.057.067ZM58.193 93.434c.284.431.506.923.861 1.284a687.806 687.806 0 0 0 7.006 7.008c.154.152.51.28.664.203.188-.094.358-.412.369-.641.041-.909.002-1.822.024-2.733.01-.372-.106-.64-.37-.901-1.575-1.555-3.135-3.124-4.7-4.69-.123-.124-.24-.255-.436-.463.173-.13.331-.223.457-.349 1.568-1.561 3.138-3.121 4.689-4.7.174-.178.327-.462.337-.704a37.35 37.35 0 0 0 0-2.879c-.008-.217-.165-.539-.337-.609-.175-.07-.522.038-.674.19a777.716 777.716 0 0 0-7.08 7.07c-.77.78-1.185 1.71-.81 2.914Zm9.928-9.883c-.012 1.04-.05 2.08-.018 3.12.008.288.15.638.35.844 1.546 1.584 3.117 3.142 4.688 4.7.125.124.307.19.462.284l-.008.246c-.153.095-.33.165-.454.288-1.57 1.56-3.143 3.117-4.687 4.702a1.4 1.4 0 0 0-.352.842 31.116 31.116 0 0 0-.001 2.732c.008.22.16.563.32.615.205.066.562-.031.723-.19 2.36-2.333 4.718-4.67 7.034-7.047 1.327-1.361 1.343-2.788.029-4.138-2.337-2.402-4.727-4.754-7.1-7.12-.339-.338-.591-.311-.986.122Zm-.474 9.496h3.704c.325 0 .65-.012.642-.461-.007-.415-.312-.437-.62-.437h-7.604c-.331 0-.659.031-.647.463.011.434.35.436.674.436 1.25-.003 2.502-.001 3.85-.001Zm-1.75-2.46c-.18 0-.358-.002-.537 0-.332.001-.698-.02-.69.46.008.445.351.437.67.437h4.43c.322 0 .658-.002.668-.442.01-.445-.323-.456-.648-.456h-3.894Zm2.53 3.166c-1.073 0-2.147.002-3.22 0-.297-.001-.522.083-.534.422-.013.335.2.468.496.47 1.594.005 3.188.004 4.783 0 .31 0 .543-.167.463-.473-.043-.169-.297-.377-.477-.399-.465-.056-.941-.02-1.51-.02Zm-2.307-4.235c.162.121.317.334.486.346.596.043 1.198.01 1.797.02.31.004.51-.101.506-.436-.003-.328-.215-.45-.512-.452-.584-.004-1.167-.003-1.75 0-.293.002-.505.11-.527.522Zm.167 6.619 2.066.09c.317.015.557-.085.553-.446-.005-.353-.24-.455-.56-.45-.55.006-1.1-.006-1.649.003-.532.009-.664.226-.41.803Z"/><path fill="#52BB7C" d="M68.965 105.098c-.881 0-1.762 0-2.657-.029-.151-.103-.291-.172-.425-.252-.569-.344-1.224-.6-1.688-1.052a554.28 554.28 0 0 1-7.388-7.368 5.187 5.187 0 0 1-1.506-3.331c-.132-1.782.495-3.284 1.766-4.543 2.297-2.276 4.579-4.569 6.863-6.86.608-.609 1.29-1.096 2.113-1.371.076-.025.126-.128.188-.194.88 0 1.761 0 2.656.029.151.103.292.171.425.252.569.343 1.224.6 1.688 1.051a556.681 556.681 0 0 1 7.39 7.37 5.186 5.186 0 0 1 1.505 3.33c.132 1.782-.495 3.284-1.765 4.543-2.298 2.276-4.58 4.569-6.864 6.859-.608.61-1.288 1.099-2.114 1.369-.086.028-.162.087-.243.131l.057.067ZM58.193 93.434c.284.431.506.923.861 1.284a687.806 687.806 0 0 0 7.006 7.008c.154.152.51.28.664.203.188-.094.358-.412.369-.641.041-.909.002-1.822.024-2.733.01-.372-.106-.64-.37-.901-1.575-1.555-3.135-3.124-4.7-4.69-.123-.124-.24-.255-.436-.463.173-.13.331-.223.457-.349 1.568-1.561 3.138-3.121 4.689-4.7.174-.178.327-.462.337-.704a37.35 37.35 0 0 0 0-2.879c-.008-.217-.165-.539-.337-.609-.175-.07-.522.038-.674.19a777.716 777.716 0 0 0-7.08 7.07c-.77.78-1.185 1.71-.81 2.914Zm9.928-9.883c-.012 1.04-.05 2.08-.018 3.12.008.288.15.638.35.844 1.546 1.584 3.117 3.142 4.688 4.7.125.124.307.19.462.284l-.008.246c-.153.095-.33.165-.454.288-1.57 1.56-3.143 3.117-4.687 4.702a1.4 1.4 0 0 0-.352.842 31.116 31.116 0 0 0-.001 2.732c.008.22.16.563.32.615.205.066.562-.031.723-.19 2.36-2.333 4.718-4.67 7.034-7.047 1.327-1.361 1.343-2.788.029-4.138-2.337-2.402-4.727-4.754-7.1-7.12-.339-.338-.591-.311-.986.122Zm-.474 9.496h3.704c.325 0 .65-.012.642-.461-.007-.415-.312-.437-.62-.437h-7.604c-.331 0-.659.031-.647.463.011.434.35.436.674.436 1.25-.003 2.502-.001 3.85-.001Zm-1.75-2.46c-.18 0-.358-.002-.537 0-.332.001-.698-.02-.69.46.008.445.351.437.67.437h4.43c.322 0 .658-.002.668-.442.01-.445-.323-.456-.648-.456h-3.894Zm2.53 3.166c-1.073 0-2.147.002-3.22 0-.297-.001-.522.083-.534.422-.013.335.2.468.496.47 1.594.005 3.188.004 4.783 0 .31 0 .543-.167.463-.473-.043-.169-.297-.377-.477-.399-.465-.056-.941-.02-1.51-.02Zm-2.307-4.235c.162.121.317.334.486.346.596.043 1.198.01 1.797.02.31.004.51-.101.506-.436-.003-.328-.215-.45-.512-.452-.584-.004-1.167-.003-1.75 0-.293.002-.505.11-.527.522Zm.167 6.619 2.066.09c.317.015.557-.085.553-.446-.005-.353-.24-.455-.56-.45-.55.006-1.1-.006-1.649.003-.532.009-.664.226-.41.803Z"/><path fill="#FCFEFD" d="M58.178 93.398c-.36-1.167.055-2.097.824-2.877a778.99 778.99 0 0 1 7.08-7.072c.153-.15.5-.26.675-.189.172.07.33.392.337.61.036.958.038 1.92 0 2.878-.01.242-.162.526-.337.704-1.551 1.579-3.12 3.139-4.689 4.7-.126.126-.284.219-.457.35.196.207.313.338.437.462 1.564 1.566 3.124 3.135 4.699 4.69.264.261.38.53.37.901-.022.911.017 1.824-.024 2.733-.01.229-.18.547-.37.641-.153.077-.51-.051-.663-.203a687.806 687.806 0 0 1-7.006-7.008c-.355-.36-.577-.853-.876-1.32Zm6.214-5.13c.322-.321.607-.696.974-.954.797-.56.696-1.327.613-2.176-.115.096-.19.15-.255.215-1.933 1.931-3.87 3.859-5.791 5.803a3.54 3.54 0 0 0-.665.95c-.233.49-.142.968.203 1.35 1.414-1.937 3.267-3.422 4.921-5.187Zm-2.845 7.401 4.473 4.473c0-.41-.024-.656.005-.896.064-.512-.123-.875-.498-1.234-1.197-1.149-2.36-2.334-3.527-3.514-.354-.357-.68-.742-1.02-1.115-.56.593-.591 1.029-.158 1.534.211.247.45.47.725.752Z"/><path fill="#FDFEFE" d="M68.14 83.514c.376-.396.628-.423.967-.085 2.373 2.367 4.763 4.718 7.1 7.12 1.314 1.35 1.298 2.776-.029 4.138-2.316 2.377-4.674 4.714-7.034 7.047-.16.159-.518.256-.722.19-.162-.052-.313-.395-.321-.615-.036-.91-.043-1.823.001-2.732a1.4 1.4 0 0 1 .352-.842c1.544-1.585 3.116-3.143 4.687-4.702.124-.123.301-.193.454-.288l.008-.246c-.155-.093-.337-.16-.462-.284-1.57-1.558-3.142-3.116-4.687-4.7a1.374 1.374 0 0 1-.351-.844c-.032-1.04.006-2.08.037-3.157Zm6.326 11.314c.469-.537.99-1.037 1.389-1.62.357-.52.228-1.056-.168-1.458-.293.38-.554.796-.89 1.14-1.673 1.707-3.328 3.433-5.067 5.07-.668.63-.551 1.286-.523 2.142l5.26-5.274Zm-5.291-8.477c.1.208.155.46.308.616 1.437 1.46 2.893 2.901 4.335 4.356.146.148.24.349.362.531.65-.71.64-1.144.03-1.76-1.59-1.606-3.192-3.2-4.79-4.796-.052-.05-.12-.083-.245-.166v1.22Z"/><path fill="#EEF8F2" d="M67.598 93.047c-1.3 0-2.551-.002-3.802 0-.324.001-.663-.001-.674-.435-.012-.432.316-.464.647-.464 2.535.002 5.07 0 7.604.001.308 0 .613.022.62.437.007.449-.317.46-.642.46h-3.753Zm-1.654-2.461h3.846c.325 0 .657.01.647.456-.01.44-.345.442-.666.442h-4.432c-.318 0-.66.008-.668-.436-.009-.481.357-.46.69-.462h.583Z"/><path fill="#FEFFFE" d="M68.476 93.753c.521 0 .997-.037 1.462.02.18.022.434.23.477.4.08.305-.154.472-.463.472-1.595.004-3.189.005-4.783 0-.296-.002-.509-.135-.496-.47.012-.34.237-.423.533-.422 1.074.002 2.148 0 3.27 0Z"/><path fill="#FAFDFB" d="M66.12 89.477c.022-.372.234-.48.527-.481.583-.003 1.166-.004 1.75 0 .297.002.509.124.512.452.004.335-.196.44-.506.436-.6-.01-1.2.023-1.797-.02-.17-.012-.324-.225-.486-.387Z"/><path fill="#FDFEFE" d="M66.256 96.108c-.223-.548-.09-.765.441-.774.55-.01 1.1.003 1.65-.004.318-.004.554.098.559.451.004.361-.236.46-.553.447-.689-.031-1.378-.061-2.097-.12Z"/><path fill="#55BC7E" d="M64.368 88.293c-1.63 1.741-3.483 3.226-4.897 5.163-.345-.382-.436-.86-.203-1.35a3.53 3.53 0 0 1 .665-.95c1.92-1.945 3.858-3.872 5.791-5.803.065-.065.14-.119.255-.215.083.85.184 1.616-.613 2.176-.367.258-.652.633-.998.98Z"/><path fill="#58BE80" d="M61.523 95.645c-.25-.258-.49-.481-.701-.728-.433-.505-.403-.94.159-1.534.34.374.665.758 1.019 1.115 1.167 1.18 2.33 2.365 3.527 3.514.375.36.562.722.498 1.234-.03.24-.005.486-.005.896l-4.497-4.497Zm12.919-.793-5.235 5.25c-.028-.856-.145-1.513.523-2.142 1.739-1.637 3.394-3.363 5.066-5.07.337-.344.598-.76.891-1.14.396.402.525.937.168 1.458-.4.583-.92 1.084-1.413 1.644Zm-5.267-8.544v-1.176c.124.083.194.115.244.166 1.599 1.596 3.2 3.19 4.791 4.796.61.616.62 1.05-.03 1.76-.122-.182-.216-.383-.362-.531-1.442-1.455-2.898-2.896-4.335-4.356-.153-.156-.208-.408-.308-.66Z"/></g><circle cx="126.5" cy="92.5" r="12.5" fill="#D9D9D9"/><circle cx="97.5" cy="92.5" r="12.5" fill="#D9D9D9"/><defs><clipPath id="a"><path fill="#fff" d="M55 80h25v25H55z"/></clipPath></defs></svg>
